<?xml version="1.0" ?>
<!-- Uploaded to: SVG Repo, www.svgrepo.com, Generator: SVG Repo Mixer Tools -->
<svg width="800px" height="800px" viewBox="0 0 512 512" id="Layer_1" version="1.1" xml:space="preserve" xmlns="http://www.w3.org/2000/svg" xmlns:xlink="http://www.w3.org/1999/xlink">
<style type="text/css">
	.st0{fill:#333333;}
</style>
<g>
<path class="st0" d="M59,191.8v104.7c0,3.9,3.1,7,7,7h38.1v74c0,13.2,10.7,23.9,23.9,23.9h72.8v80c0,3.9,3.1,7,7,7H340   c3.9,0,7-3.1,7-7V255.1h2.8c3.2,0,6-2.1,6.8-5.2l4.8-18.3c8.4-2.2,16.5-5.5,24.1-10l16.3,9.5c2.7,1.6,6.2,1.2,8.5-1.1l17.7-17.7   c2.2-2.2,2.7-5.7,1.1-8.5l-9.5-16.3c4.4-7.6,7.8-15.6,10-24.1l18.3-4.8c3.1-0.8,5.2-3.6,5.2-6.8v-25.1c0-3.2-2.1-6-5.2-6.8   l-18.3-4.8c-2.2-8.5-5.5-16.5-10-24.1l9.5-16.3c1.6-2.7,1.2-6.2-1.1-8.5l-17.7-17.7c-2.2-2.2-5.7-2.7-8.5-1.1L385.4,57   c-7.6-4.4-15.6-7.8-24.1-10l-4.8-18.3c-0.8-3.1-3.6-5.2-6.8-5.2h-25.1c-3.2,0-6,2.1-6.8,5.2L313.1,47c-8.5,2.2-16.5,5.5-24.1,10   l-16.3-9.5c-2.7-1.6-6.2-1.2-8.5,1.1l-17.7,17.7c-2.2,2.3-2.7,5.7-1.1,8.5l5.4,9.2h-83.8C107.4,83.9,59,132.3,59,191.8z M333,474.5   H214.8v-80c0-3.9-3.1-7-7-7H128c-5.5,0-9.9-4.5-9.9-9.9v-81c0-3.9-3.1-7-7-7H73v-97.7c0-51.8,42.1-93.9,93.9-93.9h84.4   c-0.1,0.2-0.2,0.4-0.3,0.6c-0.5,1-0.9,2-1.4,3c-0.1,0.3-0.3,0.6-0.4,0.9c-0.5,1.3-1,2.5-1.5,3.8c-0.1,0.3-0.2,0.5-0.3,0.8   c-0.4,1-0.7,2.1-1.1,3.2c-0.1,0.4-0.2,0.7-0.3,1.1c-0.4,1.3-0.8,2.6-1.1,4l-18.3,4.8c-3.1,0.8-5.2,3.6-5.2,6.8v25.1   c0,3.2,2.1,6,5.2,6.8l18.3,4.8c2.2,8.4,5.5,16.5,10,24.1l-9.5,16.3c-1.6,2.7-1.2,6.2,1.1,8.5l17.7,17.7c1.4,1.4,3.3,2.1,5.2,2   c1.1,0,2.3-0.3,3.3-0.9l16.3-9.5c7.6,4.4,15.6,7.8,24.1,10l4.8,18.3c0.8,3.1,3.6,5.2,6.8,5.2h8.3V474.5z M270.3,62.3l15.3,8.9   c2.3,1.3,5.1,1.3,7.3-0.2c8.4-5.5,17.6-9.3,27.3-11.3c2.6-0.5,4.6-2.5,5.3-5.1l4.5-17.1h14.3l4.5,17.1c0.7,2.6,2.7,4.5,5.3,5.1   c9.7,2.1,18.9,5.9,27.3,11.3c2.2,1.4,5.1,1.5,7.3,0.2l15.3-8.9l10.1,10.1l-8.9,15.3c-1.3,2.3-1.3,5.1,0.2,7.3   c5.4,8.4,9.3,17.6,11.3,27.3c0.5,2.6,2.5,4.6,5.1,5.3l17.1,4.5v14.3l-17.1,4.5c-2.6,0.7-4.5,2.7-5.1,5.3   c-2.1,9.7-5.9,18.9-11.3,27.3c-1.4,2.2-1.5,5.1-0.2,7.3l8.9,15.3l-10.1,10.1l-15.3-8.9c-2.3-1.3-5.1-1.3-7.3,0.2   c-8.4,5.5-17.6,9.3-27.3,11.3c-2.6,0.5-4.6,2.5-5.3,5.1l-4.5,17.1H340h-9.9l-4.5-17.1c-0.7-2.6-2.7-4.5-5.3-5.1   c-9.7-2.1-18.9-5.9-27.3-11.3c-2.2-1.4-5.1-1.5-7.3-0.2l-15.3,8.9l-10.1-10.1l8.9-15.3c1.3-2.3,1.3-5.1-0.2-7.3   c-5.5-8.4-9.3-17.6-11.3-27.3c-0.5-2.6-2.5-4.6-5.1-5.3l-17.1-4.5v-14.3l17.1-4.5c0.6-0.2,1.2-0.4,1.8-0.8c1.7-1,2.9-2.6,3.3-4.6   c1.8-8.5,4.9-16.6,9.4-24.1c0.6-1.1,1.3-2.1,2-3.2c1.4-2.2,1.5-5,0.2-7.3l-0.2-0.3c0,0,0,0,0,0l-8.8-15L270.3,62.3z"/>
<path class="st0" d="M147.7,159.7c-17.2,0-31.2,14-31.2,31.2c0,17.2,14,31.2,31.2,31.2s31.2-14,31.2-31.2   C178.8,173.6,164.9,159.7,147.7,159.7z M147.7,208c-9.5,0-17.2-7.7-17.2-17.2c0-9.5,7.7-17.2,17.2-17.2c9.5,0,17.2,7.7,17.2,17.2   C164.8,200.3,157.1,208,147.7,208z"/>
<path class="st0" d="M311,166.7c6.7,4.7,14.3,7.7,22.5,8.6v6.8c0,2.6,2.2,4.7,4.8,4.7s4.7-2.1,4.7-4.7v-6.6   c13.9-1.3,23.4-9.3,23.4-21.4c0-11.7-7.1-18.4-23.8-22.6v-21.1c3.7,0.9,7.5,2.5,11.3,4.8c1.1,0.7,2.2,1,3.3,1c3.4,0,6.1-2.6,6.1-6   c0-2.6-1.5-4.3-3.3-5.3c-5-3.2-10.5-5.3-17-6v-2.4c0-2.6-2.1-4.7-4.7-4.7s-4.8,2.1-4.8,4.7v2.3c-13.7,1.1-23,9.2-23,21   c0,5,1.2,9,3.8,12.2c3.7,4.7,10.2,7.9,19.7,10.4V164c-6-1.1-11.1-3.6-16.2-7.3c-1-0.8-2.3-1.2-3.6-1.2c-3.4,0-6,2.6-6,6   C308,163.8,309.1,165.5,311,166.7z M342.6,144.5c8.4,2.6,10.9,5.6,10.9,10.4c0,5.3-3.8,8.8-10.9,9.5V144.5z M329.5,127.5   C329.5,127.5,329.5,127.5,329.5,127.5c-4.8-2.3-6.1-4.8-6.1-8.5c0-4.8,3.5-8.6,10.5-9.2v19.4C332.2,128.7,330.7,128.1,329.5,127.5z   "/>
</g>
</svg>